<svg width="9" height="9" viewBox="0 0 9 9" fill="none" xmlns="http://www.w3.org/2000/svg">
<path d="M8.93989 4.2146C8.90419 4.12254 8.85067 4.03843 8.78239 3.9671L5.03244 0.217148C4.96251 0.14722 4.87949 0.0917502 4.78813 0.0539055C4.69676 0.0160607 4.59884 -0.00341797 4.49994 -0.00341797C4.30022 -0.00341797 4.10868 0.075922 3.96745 0.217148C3.89752 0.287076 3.84205 0.370093 3.80421 0.461458C3.76636 0.552823 3.74688 0.650748 3.74688 0.749641C3.74688 0.949365 3.82622 1.14091 3.96745 1.28213L6.44242 3.7496H0.749991C0.551081 3.7496 0.360318 3.82862 0.219667 3.96927C0.0790168 4.10992 0 4.30068 0 4.49959C0 4.6985 0.0790168 4.88927 0.219667 5.02992C0.360318 5.17057 0.551081 5.24958 0.749991 5.24958H6.44242L3.96745 7.71705C3.89715 7.78677 3.84136 7.86972 3.80328 7.96112C3.76521 8.05251 3.7456 8.15054 3.7456 8.24955C3.7456 8.34855 3.76521 8.44658 3.80328 8.53798C3.84136 8.62937 3.89715 8.71232 3.96745 8.78204C4.03717 8.85233 4.12012 8.90813 4.21151 8.94621C4.30291 8.98428 4.40094 9.00389 4.49994 9.00389C4.59895 9.00389 4.69698 8.98428 4.78837 8.94621C4.87977 8.90813 4.96272 8.85233 5.03244 8.78204L8.78239 5.03209C8.85067 4.96076 8.90419 4.87665 8.93989 4.78459C9.0149 4.602 9.0149 4.39719 8.93989 4.2146Z" fill="white"/>
</svg>
