<svg width="39" height="39" viewBox="0 0 39 39" fill="none" xmlns="http://www.w3.org/2000/svg">
<path d="M30.9815 5.3457H8.81486C7.06528 5.3457 5.64819 6.76279 5.64819 8.51237V30.679C5.64819 32.4286 7.06528 33.8457 8.81486 33.8457H20.8814V22.8241H17.1717V18.5095H20.8814V15.335C20.8814 11.6553 23.1314 9.6492 26.4152 9.6492C27.5219 9.64604 28.6271 9.70304 29.7275 9.81545V13.663H27.4665C25.6774 13.663 25.329 14.5085 25.329 15.7561V18.5032H29.604L29.0483 22.8178H25.3037V33.8457H30.9815C32.7311 33.8457 34.1482 32.4286 34.1482 30.679V8.51237C34.1482 6.76279 32.7311 5.3457 30.9815 5.3457Z" fill="#2DAAE1"/>
</svg>
