<svg width="38" height="37" viewBox="0 0 38 37" fill="none" xmlns="http://www.w3.org/2000/svg">
<path d="M13.2037 5.0957C8.94715 5.0957 5.49536 8.4542 5.49536 12.5957V24.5957C5.49536 28.7372 8.94715 32.0957 13.2037 32.0957H25.537C29.7936 32.0957 33.2454 28.7372 33.2454 24.5957V12.5957C33.2454 8.4542 29.7936 5.0957 25.537 5.0957H13.2037ZM28.6204 8.0957C29.4714 8.0957 30.162 8.7677 30.162 9.5957C30.162 10.4237 29.4714 11.0957 28.6204 11.0957C27.7694 11.0957 27.0787 10.4237 27.0787 9.5957C27.0787 8.7677 27.7694 8.0957 28.6204 8.0957ZM19.3704 11.0957C23.6269 11.0957 27.0787 14.4542 27.0787 18.5957C27.0787 22.7372 23.6269 26.0957 19.3704 26.0957C15.1138 26.0957 11.662 22.7372 11.662 18.5957C11.662 14.4542 15.1138 11.0957 19.3704 11.0957ZM19.3704 14.0957C18.1437 14.0957 16.9673 14.5698 16.1 15.4137C15.2326 16.2576 14.7454 17.4022 14.7454 18.5957C14.7454 19.7892 15.2326 20.9338 16.1 21.7777C16.9673 22.6216 18.1437 23.0957 19.3704 23.0957C20.597 23.0957 21.7734 22.6216 22.6407 21.7777C23.5081 20.9338 23.9954 19.7892 23.9954 18.5957C23.9954 17.4022 23.5081 16.2576 22.6407 15.4137C21.7734 14.5698 20.597 14.0957 19.3704 14.0957Z" fill="#2DAAE1"/>
</svg>
