<svg width="36" height="35" viewBox="0 0 36 35" fill="none" xmlns="http://www.w3.org/2000/svg">
<path d="M28.5648 4.8457H8.14811C6.53665 4.8457 5.23145 6.11362 5.23145 7.67904V27.5124C5.23145 29.0778 6.53665 30.3457 8.14811 30.3457H28.5648C30.1762 30.3457 31.4814 29.0778 31.4814 27.5124V7.67904C31.4814 6.11362 30.1762 4.8457 28.5648 4.8457ZM13.9814 24.679H10.3021V14.7624H13.9814V24.679ZM12.0769 12.9448C10.9525 12.9448 10.2014 12.2166 10.2014 11.2448C10.2014 10.273 10.951 9.54479 12.2008 9.54479C13.3252 9.54479 14.0762 10.273 14.0762 11.2448C14.0762 12.2166 13.3267 12.9448 12.0769 12.9448ZM27.1064 24.679H23.5452V19.2589C23.5452 17.76 22.5958 17.4144 22.24 17.4144C21.8842 17.4144 20.6971 17.6453 20.6971 19.2589C20.6971 19.4898 20.6971 24.679 20.6971 24.679H17.0177V14.7624H20.6971V16.1465C21.171 15.339 22.1204 14.7624 23.901 14.7624C25.6817 14.7624 27.1064 16.1465 27.1064 19.2589V24.679Z" fill="#2DAAE1"/>
</svg>
