<svg width="14" height="16" viewBox="0 0 14 16" fill="none" xmlns="http://www.w3.org/2000/svg">
<path d="M11.3357 1.93335C10.1441 0.741718 8.52789 0.0722656 6.84266 0.0722656C5.15744 0.0722656 3.54124 0.741718 2.34961 1.93335C1.15798 3.12498 0.488525 4.74118 0.488525 6.42641C0.488525 8.11163 1.15798 9.72783 2.34961 10.9195L6.29601 14.8733C6.36562 14.9435 6.44845 14.9992 6.5397 15.0373C6.63095 15.0753 6.72883 15.0949 6.82769 15.0949C6.92654 15.0949 7.02442 15.0753 7.11567 15.0373C7.20693 14.9992 7.28975 14.9435 7.35937 14.8733L11.3357 10.882C12.5224 9.69534 13.189 8.08588 13.189 6.40768C13.189 4.72949 12.5224 3.12002 11.3357 1.93335V1.93335ZM10.2649 9.81117L6.84266 13.2484L3.42045 9.81117C2.74436 9.13446 2.28407 8.27249 2.09777 7.33422C1.91147 6.39595 2.00753 5.42351 2.3738 4.53983C2.74007 3.65615 3.36011 2.90089 4.15554 2.36953C4.95097 1.83818 5.88608 1.55457 6.84266 1.55457C7.79925 1.55457 8.73436 1.83818 9.52979 2.36953C10.3252 2.90089 10.9453 3.65615 11.3115 4.53983C11.6778 5.42351 11.7739 6.39595 11.5876 7.33422C11.4013 8.27249 10.941 9.13446 10.2649 9.81117V9.81117ZM4.59614 4.12746C3.99161 4.73385 3.65214 5.55518 3.65214 6.41143C3.65214 7.26768 3.99161 8.08901 4.59614 8.6954C5.04526 9.14529 5.61725 9.45254 6.24033 9.57858C6.86342 9.70463 7.50985 9.64387 8.09853 9.40392C8.68721 9.16397 9.19192 8.75551 9.54934 8.2298C9.90676 7.70409 10.101 7.08454 10.1076 6.44887C10.111 6.02443 10.0292 5.60362 9.86717 5.21132C9.7051 4.81903 9.46603 4.46321 9.16408 4.1649C8.86729 3.8613 8.51339 3.6194 8.12275 3.4531C7.73211 3.2868 7.31244 3.1994 6.8879 3.19592C6.46335 3.19244 6.0423 3.27295 5.64899 3.43282C5.25568 3.59269 4.89786 3.82877 4.59614 4.12746V4.12746ZM8.10821 7.63204C7.82443 7.92015 7.44938 8.10074 7.04719 8.14294C6.645 8.18514 6.24064 8.08632 5.90325 7.86338C5.56585 7.64044 5.31637 7.30722 5.19746 6.9207C5.07855 6.53418 5.0976 6.11836 5.25134 5.74433C5.40509 5.37029 5.68398 5.06128 6.04034 4.87011C6.39671 4.67895 6.80841 4.61751 7.20506 4.69629C7.60171 4.77508 7.95867 4.9892 8.21493 5.30204C8.47118 5.61489 8.6108 6.00703 8.60993 6.41143C8.59904 6.87367 8.40512 7.31268 8.07077 7.63204H8.10821Z" fill="#325A73"/>
</svg>
