<svg width="19" height="19" viewBox="0 0 19 19" fill="none" xmlns="http://www.w3.org/2000/svg">
<path d="M14.3357 3.93335C13.1441 2.74172 11.5279 2.07227 9.84266 2.07227C8.15744 2.07227 6.54124 2.74172 5.34961 3.93335C4.15798 5.12498 3.48853 6.74118 3.48853 8.42641C3.48853 10.1116 4.15798 11.7278 5.34961 12.9195L9.29601 16.8733C9.36562 16.9435 9.44845 16.9992 9.5397 17.0373C9.63095 17.0753 9.72883 17.0949 9.82769 17.0949C9.92654 17.0949 10.0244 17.0753 10.1157 17.0373C10.2069 16.9992 10.2898 16.9435 10.3594 16.8733L14.3357 12.882C15.5224 11.6953 16.189 10.0859 16.189 8.40768C16.189 6.72949 15.5224 5.12002 14.3357 3.93335V3.93335ZM13.2649 11.8112L9.84266 15.2484L6.42045 11.8112C5.74436 11.1345 5.28407 10.2725 5.09777 9.33422C4.91147 8.39595 5.00753 7.42351 5.3738 6.53983C5.74007 5.65615 6.36011 4.90089 7.15554 4.36953C7.95097 3.83818 8.88608 3.55457 9.84266 3.55457C10.7992 3.55457 11.7344 3.83818 12.5298 4.36953C13.3252 4.90089 13.9453 5.65615 14.3115 6.53983C14.6778 7.42351 14.7739 8.39595 14.5876 9.33422C14.4013 10.2725 13.941 11.1345 13.2649 11.8112V11.8112ZM7.59614 6.12746C6.99161 6.73385 6.65214 7.55518 6.65214 8.41143C6.65214 9.26768 6.99161 10.089 7.59614 10.6954C8.04526 11.1453 8.61725 11.4525 9.24033 11.5786C9.86342 11.7046 10.5098 11.6439 11.0985 11.4039C11.6872 11.164 12.1919 10.7555 12.5493 10.2298C12.9068 9.70409 13.101 9.08454 13.1076 8.44887C13.111 8.02443 13.0292 7.60362 12.8672 7.21132C12.7051 6.81903 12.466 6.46321 12.1641 6.1649C11.8673 5.8613 11.5134 5.6194 11.1228 5.4531C10.7321 5.2868 10.3124 5.1994 9.8879 5.19592C9.46335 5.19244 9.0423 5.27295 8.64899 5.43282C8.25568 5.59269 7.89786 5.82877 7.59614 6.12746V6.12746ZM11.1082 9.63204C10.8244 9.92015 10.4494 10.1007 10.0472 10.1429C9.645 10.1851 9.24064 10.0863 8.90325 9.86338C8.56585 9.64044 8.31637 9.30722 8.19746 8.9207C8.07855 8.53418 8.0976 8.11836 8.25134 7.74433C8.40509 7.37029 8.68398 7.06128 9.04034 6.87011C9.39671 6.67895 9.80841 6.61751 10.2051 6.69629C10.6017 6.77508 10.9587 6.9892 11.2149 7.30204C11.4712 7.61489 11.6108 8.00703 11.6099 8.41143C11.599 8.87367 11.4051 9.31268 11.0708 9.63204H11.1082Z" fill="white"/>
</svg>
