<svg width="16" height="16" viewBox="0 0 16 16" fill="none" xmlns="http://www.w3.org/2000/svg">
<path d="M13.1219 3.10735C11.7216 1.69953 9.85697 0.928223 7.87254 0.928223C3.78386 0.928223 0.451509 4.26057 0.451509 8.34925C0.451509 9.65973 0.795977 10.9328 1.43998 12.056L0.391602 15.9051L4.32302 14.8717C5.40885 15.4633 6.62946 15.7778 7.87254 15.7778C11.9612 15.7778 15.2936 12.4454 15.2936 8.35674C15.2936 6.37231 14.5223 4.50769 13.1219 3.10735ZM7.87254 14.5197C6.76425 14.5197 5.67843 14.2202 4.7274 13.6585L4.50275 13.5238L2.16636 14.1378L2.7879 11.8613L2.63813 11.6292C2.02408 10.6482 1.69459 9.50996 1.69459 8.34925C1.69459 4.94951 4.4653 2.17879 7.86505 2.17879C9.5125 2.17879 11.0626 2.82279 12.2233 3.99099C13.3915 5.15918 14.028 6.70929 14.028 8.35674C14.043 11.7565 11.2723 14.5197 7.87254 14.5197ZM11.2573 9.90684C11.0701 9.81698 10.1565 9.36768 9.99176 9.30028C9.81953 9.24037 9.69971 9.21042 9.57241 9.39014C9.44511 9.57735 9.09315 9.99671 8.98831 10.1165C8.88347 10.2438 8.77115 10.2588 8.58394 10.1615C8.39673 10.0716 7.79765 9.8694 7.09374 9.24037C6.5396 8.74614 6.17267 8.13958 6.06034 7.95237C5.9555 7.76515 6.04536 7.6678 6.14271 7.57046C6.22508 7.48808 6.32992 7.35329 6.41978 7.24845C6.50964 7.14361 6.54709 7.06124 6.60699 6.94143C6.6669 6.81412 6.63695 6.70929 6.59202 6.61943C6.54709 6.52956 6.17267 5.61598 6.0229 5.24156C5.87313 4.88211 5.71587 4.92704 5.60355 4.91955C5.49122 4.91955 5.3714 4.91955 5.2441 4.91955C5.1168 4.91955 4.9221 4.96448 4.74986 5.15169C4.58512 5.3389 4.10586 5.78821 4.10586 6.7018C4.10586 7.61539 4.77233 8.49902 4.86219 8.61884C4.95205 8.74614 6.17267 10.6182 8.02979 11.4195C8.47161 11.6142 8.81608 11.7265 9.08566 11.8089C9.52748 11.9512 9.93185 11.9287 10.2539 11.8838C10.6133 11.8314 11.3547 11.4345 11.5044 11.0002C11.6617 10.5658 11.6617 10.1989 11.6093 10.1165C11.5568 10.0341 11.4445 9.9967 11.2573 9.90684Z" fill="#F0F0F0"/>
</svg>
